<svg viewBox="0 0 32 32" xml:space="preserve" xmlns="http://www.w3.org/2000/svg"><path d="M26.6 5.4C23.8 2.6 20 1 16 1S8.2 2.6 5.4 5.4C2.6 8.2 1 12 1 16s1.6 7.8 4.4 10.6C8.2 29.4 12 31 16 31s7.8-1.6 10.6-4.4C29.4 23.8 31 20 31 16s-1.6-7.8-4.4-10.6z" fill="#46a459" class="fill-fe9803"></path><path d="m17.4 16 5-5c.2-.2.3-.5.3-.7 0-.3-.1-.5-.3-.7-.4-.4-1-.4-1.4 0l-5 4.9-5-4.9c-.4-.4-1-.4-1.4 0-.2.2-.3.4-.3.7 0 .3.1.5.3.7l5 5-5 5c-.2.2-.3.4-.3.7 0 .3.1.5.3.7.2.2.5.3.7.3.3 0 .5-.1.7-.3l5-5 5 5c.2.2.5.3.7.3.3 0 .5-.1.7-.3.2-.2.3-.5.3-.7 0-.3-.1-.5-.3-.7l-5-5z" fill="#ffffff" class="fill-673ab7"></path></svg>