<svg viewBox="0 0 64 64" xmlns="http://www.w3.org/2000/svg"><g fill="#ffffff" fill-rule="evenodd" class="fill-000000"><path d="M19.5 15a2.5 2.5 0 0 1 2.5 2.5v29a2.5 2.5 0 1 1-5 0v-29a2.5 2.5 0 0 1 2.5-2.5ZM31.5 15a2.5 2.5 0 0 1 2.5 2.5v29a2.5 2.5 0 1 1-5 0v-29a2.5 2.5 0 0 1 2.5-2.5ZM43.5 15a2.5 2.5 0 0 1 2.5 2.5v29a2.5 2.5 0 1 1-5 0v-29a2.5 2.5 0 0 1 2.5-2.5Z"></path><path d="M16.5 39h6a2.5 2.5 0 1 1 0 5h-6a2.5 2.5 0 1 1 0-5ZM28.5 30h6a2.5 2.5 0 1 1 0 5h-6a2.5 2.5 0 1 1 0-5ZM40.5 22h6a2.5 2.5 0 1 1 0 5h-6a2.5 2.5 0 1 1 0-5Z"></path></g></svg>