<svg viewBox="0 0 32 32" xmlns="http://www.w3.org/2000/svg"><path d="M16 13.18a6.09 6.09 0 1 1 6.09-6.09A6.09 6.09 0 0 1 16 13.18ZM16 3a4.09 4.09 0 1 0 4.09 4.09A4.09 4.09 0 0 0 16 3Z" fill="#46a459" class="fill-bfffc8"></path><path d="M23 31H9a5.46 5.46 0 0 1-5.45-5.45A10.56 10.56 0 0 1 14.09 15h3.82a10.56 10.56 0 0 1 10.54 10.55A5.46 5.46 0 0 1 23 31Zm-8.91-14a8.55 8.55 0 0 0-8.54 8.55A3.46 3.46 0 0 0 9 29h14a3.46 3.46 0 0 0 3.45-3.45A8.55 8.55 0 0 0 17.91 17Z" fill="#46a459" class="fill-00df8e"></path></svg>